<?xml version="1.0" encoding="utf-8"?>
<!-- Generator: Adobe Illustrator 26.2.1, SVG Export Plug-In . SVG Version: 6.00 Build 0)  -->
<svg version="1.1" id="Layer_1" xmlns="http://www.w3.org/2000/svg" xmlns:xlink="http://www.w3.org/1999/xlink" x="0px" y="0px"
	 viewBox="0 0 32 32" style="enable-background:new 0 0 32 32;" xml:space="preserve">
<style type="text/css">
	.st0{fill-rule:evenodd;clip-rule:evenodd;fill:#FFFFFF;}
</style>
<g id="camera">
	<path class="st0" d="M16,10c-4.4,0-8,3.6-8,8c0,4.4,3.6,8,8,8c4.4,0,8-3.6,8-8S20.4,10,16,10z M20.6,21.9c-2.2,2.5-5.9,2.8-8.5,0.6
		c-2.5-2.2-2.8-5.9-0.6-8.5c2.2-2.5,5.9-2.8,8.5-0.6C22.4,15.6,22.7,19.4,20.6,21.9z"/>
	<path class="st0" d="M16,14c-2.2,0-4,1.8-4,4v0c0,0.3,0.2,0.5,0.5,0.5S13,18.3,13,18v0c0-1.7,1.3-3,3-3c0.3,0,0.5-0.2,0.5-0.5
		S16.3,14,16,14z"/>
	<path class="st0" d="M29.5,9l-4.3-0.7l-1.4-3.4C23.3,3.7,22.2,3,21,3H11C9.8,3,8.7,3.7,8.2,4.9L6.8,8.3L2.5,9C1.1,9.3,0,10.5,0,12
		v15c0,1.7,1.3,3,3,3h26c1.7,0,3-1.3,3-3V12C32,10.5,30.9,9.3,29.5,9z M30,27c0,0.6-0.4,1-1,1H3c-0.6,0-1-0.4-1-1V12
		c0-0.5,0.4-0.9,0.8-1l5.4-0.9l1.8-4.5C10.2,5.2,10.6,5,11,5h10c0.4,0,0.8,0.2,0.9,0.6l1.8,4.5l5.4,0.9c0.5,0.1,0.8,0.5,0.8,1V27z"
		/>
</g>
</svg>
